<?xml version="1.0" standalone="no"?>
<!DOCTYPE svg PUBLIC "-//W3C//DTD SVG 20010904//EN"
 "http://www.w3.org/TR/2001/REC-SVG-20010904/DTD/svg10.dtd">
<svg version="1.0" xmlns="http://www.w3.org/2000/svg"
 width="500.000000pt" height="500.000000pt" viewBox="0 0 500.000000 500.000000"
 preserveAspectRatio="xMidYMid meet">

<g transform="translate(0.000000,500.000000) scale(0.100000,-0.100000)"
fill="#000000" stroke="none">
<path d="M190 2965 l0 -635 2303 2 2302 3 3 633 2 632 -2305 0 -2305 0 0 -635z
m4570 0 l0 -595 -2265 0 -2265 0 0 595 0 595 2265 0 2265 0 0 -595z"/>
<path d="M320 2965 l0 -515 1079 0 c909 0 1080 2 1090 14 9 10 11 146 9 512
l-3 499 -1087 3 -1088 2 0 -515z m290 180 c48 -25 69 -85 30 -85 -11 0 -20 5
-20 10 0 6 -9 19 -20 30 -28 28 -84 27 -104 -2 -22 -31 -4 -55 56 -73 99 -29
130 -68 104 -130 -17 -39 -67 -58 -128 -49 -42 7 -88 46 -88 75 0 26 37 25 45
-1 7 -23 37 -33 91 -28 32 2 40 7 42 26 5 30 -12 49 -51 58 -47 10 -105 41
-117 63 -14 26 -12 62 4 83 28 38 106 49 156 23z m378 -5 c6 -18 -17 -30 -60
-30 l-38 0 0 -130 c0 -123 -1 -130 -20 -130 -19 0 -20 7 -20 130 0 128 0 130
-22 131 -13 1 -27 1 -32 0 -21 -4 -56 10 -56 23 0 20 7 21 132 20 80 -1 113
-5 116 -14z m247 5 c35 -6 65 -48 65 -90 0 -32 -35 -85 -56 -85 -16 0 -10 -12
44 -97 13 -22 13 -23 -10 -23 -19 0 -34 13 -59 50 -33 49 -66 69 -88 55 -6 -3
-11 -28 -11 -56 0 -46 -2 -49 -25 -49 l-25 0 0 149 c0 134 2 150 18 153 20 4
104 0 147 -7z m343 6 c14 -1 22 -6 20 -13 -3 -8 -31 -15 -74 -18 l-69 -5 -3
-47 -3 -48 70 0 c39 0 71 -4 71 -8 0 -21 -29 -32 -82 -32 l-58 0 0 -45 0 -45
75 0 c68 0 75 -2 75 -20 0 -19 -7 -20 -100 -20 l-100 0 0 149 c0 90 4 151 10
153 8 2 61 2 168 -1z m560 -82 c28 -43 55 -79 60 -79 4 0 29 34 56 76 47 72
76 100 90 87 3 -3 6 -73 6 -155 0 -141 -1 -148 -20 -148 -19 0 -20 7 -20 113
l0 112 -48 -73 c-58 -90 -72 -91 -127 -5 -22 35 -43 63 -47 63 -5 0 -8 -47 -8
-105 0 -98 -1 -105 -20 -105 -19 0 -20 7 -20 148 0 82 3 151 6 154 15 16 44
-11 92 -83z m-298 70 c0 -6 27 -73 59 -150 58 -138 59 -139 34 -139 -18 0 -28
9 -39 35 l-14 35 -71 0 -70 0 -15 -35 c-10 -24 -21 -35 -35 -35 -25 0 -23 6
33 140 70 168 66 160 93 160 14 0 25 -5 25 -11z"/>
<path d="M1120 3055 l0 -55 50 0 c37 0 55 5 70 20 24 24 25 38 4 68 -12 18
-25 22 -70 22 l-54 0 0 -55z"/>
<path d="M1788 3037 c-34 -83 -36 -77 21 -77 28 0 51 2 51 5 0 13 -42 115 -48
115 -4 0 -15 -19 -24 -43z"/>
<path d="M3025 3131 c-43 -26 -62 -51 -74 -98 -21 -79 9 -165 71 -203 42 -25
135 -27 185 -4 34 17 83 76 83 101 0 22 -84 16 -104 -6 -36 -40 -122 -31 -140
14 -12 32 -6 83 13 106 26 32 90 33 124 1 16 -16 36 -22 66 -22 39 0 42 2 35
23 -11 34 -46 73 -82 91 -45 22 -139 21 -177 -3z"/>
<path d="M3424 3103 c-10 -27 -37 -97 -61 -156 -24 -59 -43 -114 -43 -122 0
-11 12 -15 43 -15 37 0 46 4 55 25 11 23 17 25 72 25 55 0 61 -2 70 -25 8 -22
16 -25 55 -25 32 0 45 4 45 14 0 13 -47 140 -70 191 -5 11 -19 46 -30 78 l-21
57 -49 0 -48 0 -18 -47z m79 -100 c8 -16 18 -38 21 -50 7 -21 4 -23 -34 -23
-30 0 -41 4 -37 13 2 6 10 29 18 50 7 20 14 37 16 37 1 0 9 -12 16 -27z"/>
<path d="M3715 3138 c-3 -7 -4 -83 -3 -168 l3 -155 48 -3 47 -3 0 50 c0 44 3
51 20 51 14 0 27 -15 45 -50 25 -50 25 -50 75 -50 28 0 50 3 50 8 0 4 -11 27
-25 51 -27 46 -32 71 -14 71 5 0 17 16 25 36 21 50 10 104 -26 139 -28 26 -36
29 -135 33 -84 4 -106 2 -110 -10z m183 -103 c4 -34 -18 -55 -60 -55 -27 0
-28 2 -28 46 l0 45 43 -3 c38 -3 42 -6 45 -33z"/>
<path d="M4050 3105 l0 -45 50 0 50 0 0 -125 0 -125 44 0 c42 0 44 2 49 33 3
17 5 73 4 122 l0 90 51 3 52 3 0 45 0 44 -150 0 -150 0 0 -45z"/>
<path d="M1955 2215 c-16 -9 -38 -26 -47 -38 -41 -52 -30 -168 19 -206 35 -28
97 -28 116 -1 l14 21 6 -21 c4 -16 12 -21 29 -18 22 3 23 7 23 73 l0 70 -57 3
c-53 3 -58 1 -58 -18 0 -16 6 -20 30 -20 25 0 30 -4 30 -25 0 -54 -90 -58
-118 -5 -17 32 -9 105 13 130 22 24 77 26 100 4 17 -18 45 -12 45 9 0 42 -94
69 -145 42z"/>
<path d="M3693 2219 c-34 -10 -63 -42 -63 -70 0 -28 39 -67 73 -74 37 -8 77
-31 77 -45 0 -17 -31 -40 -54 -40 -13 0 -34 9 -48 20 -25 19 -48 12 -48 -15 0
-34 107 -58 153 -34 30 16 37 28 37 71 0 44 -31 73 -90 83 -47 8 -60 33 -30
57 19 16 25 16 55 4 24 -10 36 -11 44 -3 18 18 13 27 -24 43 -39 16 -38 16
-82 3z"/>
<path d="M784 2207 c-2 -7 -3 -67 -2 -133 l3 -119 81 0 c67 0 86 4 103 19 30
27 29 88 -3 113 -23 19 -23 19 -5 42 25 30 24 37 -6 66 -21 22 -33 25 -95 25
-49 0 -72 -4 -76 -13z m130 -36 c30 -33 -7 -69 -61 -59 -18 3 -29 38 -19 64 8
20 60 17 80 -5z m7 -101 c12 -7 19 -21 19 -40 0 -33 -23 -44 -76 -38 -23 2
-30 9 -32 31 -2 16 -1 35 2 43 6 16 59 19 87 4z"/>
<path d="M1166 2113 c-60 -173 -58 -163 -30 -163 19 0 29 8 40 35 14 33 17 35
63 35 48 0 50 -1 62 -35 10 -26 19 -35 36 -35 13 0 23 3 23 8 0 4 -19 64 -43
132 l-43 125 -35 3 -35 3 -38 -108z m90 12 c22 -54 19 -65 -21 -65 -19 0 -35
3 -35 7 0 12 32 93 37 93 2 0 11 -16 19 -35z"/>
<path d="M1500 2085 l0 -135 25 0 c25 0 25 0 25 98 l1 97 34 -55 c20 -30 47
-74 62 -97 19 -30 34 -43 50 -43 23 0 23 1 23 135 0 127 -1 135 -20 135 -17 0
-19 -8 -22 -87 -3 -100 -2 -101 -75 15 -39 62 -49 72 -74 72 l-29 0 0 -135z"/>
<path d="M2264 2207 c-2 -7 -3 -67 -2 -133 l3 -119 85 0 c73 0 85 2 88 18 3
15 -5 17 -56 17 -45 0 -61 4 -66 16 -3 9 -6 60 -6 115 0 93 -1 99 -20 99 -11
0 -23 -6 -26 -13z"/>
<path d="M2646 2211 c-4 -6 -27 -67 -51 -136 l-44 -125 25 0 c19 0 29 8 40 36
14 34 16 35 67 32 48 -3 52 -5 61 -35 7 -25 14 -33 32 -33 13 0 24 3 24 8 0 4
-19 64 -43 132 -42 122 -44 125 -74 128 -17 2 -34 -1 -37 -7z m59 -113 l7 -38
-36 0 c-41 0 -41 0 -19 58 13 35 18 41 29 30 7 -7 16 -30 19 -50z"/>
<path d="M2940 2085 l0 -135 58 1 c117 1 166 40 166 132 1 101 -39 137 -153
137 l-71 0 0 -135z m154 70 c20 -18 26 -34 26 -64 0 -55 -32 -90 -88 -98 l-42
-6 0 97 0 96 39 0 c27 0 46 -7 65 -25z"/>
<path d="M3327 2213 c-4 -3 -7 -64 -7 -135 l0 -128 90 0 c83 0 90 2 90 20 0
16 -8 19 -62 22 l-63 3 -3 38 -3 37 55 0 c49 0 56 3 56 19 0 17 -8 20 -52 23
-51 3 -53 4 -53 33 0 30 0 30 63 33 54 3 62 6 62 22 0 18 -7 20 -83 20 -46 0
-87 -3 -90 -7z"/>
<path d="M3970 2085 l0 -135 25 0 c23 0 24 4 27 63 l3 62 60 0 60 0 3 -63 c3
-59 5 -63 25 -60 21 3 22 7 22 133 0 127 0 130 -22 133 -21 3 -23 0 -23 -47
l0 -51 -65 0 -65 0 0 50 c0 47 -2 50 -25 50 l-25 0 0 -135z"/>
</g>
</svg>
