<?xml version="1.0" standalone="no"?>
<!DOCTYPE svg PUBLIC "-//W3C//DTD SVG 20010904//EN"
 "http://www.w3.org/TR/2001/REC-SVG-20010904/DTD/svg10.dtd">
<svg version="1.0" xmlns="http://www.w3.org/2000/svg"
 width="500.000000pt" height="500.000000pt" viewBox="0 0 500.000000 500.000000"
 preserveAspectRatio="xMidYMid meet">

<g transform="translate(0.000000,500.000000) scale(0.100000,-0.100000)"
fill="#000000" stroke="none">
<path d="M202 2908 l3 -643 2348 -3 2347 -2 0 645 0 645 -2350 0 -2350 0 2
-642z m4665 25 c1 -318 0 -590 -4 -606 l-5 -27 -2307 2 -2306 3 -3 602 -2 602
32 3 c18 2 1059 2 2313 1 l2280 -2 2 -578z"/>
<path d="M340 2910 c0 -409 3 -520 13 -521 82 -3 2190 2 2196 6 6 3 9 225 9
520 l0 515 -1109 0 -1109 0 0 -520z m302 179 c26 -14 51 -56 44 -74 -9 -24
-30 -17 -48 15 -15 26 -23 30 -61 30 -48 0 -67 -13 -67 -46 0 -18 11 -27 55
-43 31 -12 58 -21 61 -21 3 0 19 -9 35 -21 23 -16 29 -28 29 -58 0 -44 -28
-75 -77 -86 -62 -13 -153 32 -153 77 0 26 27 22 54 -8 39 -46 136 -34 136 17
0 21 -22 35 -91 55 -69 21 -103 57 -95 102 5 34 30 60 71 74 23 8 81 1 107
-13z m378 -9 c0 -17 -7 -20 -50 -20 l-50 0 0 -135 c0 -128 -1 -135 -20 -135
-18 0 -20 8 -22 133 l-3 132 -52 3 c-45 3 -53 6 -53 23 0 18 8 19 125 19 118
0 125 -1 125 -20z m281 -8 c26 -23 32 -36 32 -70 0 -45 -25 -92 -48 -92 -22 0
-19 -9 20 -68 l36 -52 -25 0 c-19 0 -36 14 -66 56 -35 46 -46 55 -68 52 -25
-3 -27 -7 -30 -55 -3 -45 -6 -53 -23 -53 -18 0 -19 8 -19 155 l0 155 80 0 c73
0 82 -2 111 -28z m337 6 c3 -15 -7 -18 -70 -20 l-73 -3 0 -45 0 -45 68 -3 c58
-2 68 -6 65 -20 -3 -14 -17 -18 -71 -20 l-67 -3 0 -44 0 -45 75 0 c68 0 75 -2
75 -20 0 -19 -7 -20 -100 -20 l-100 0 0 148 c0 82 3 152 7 156 4 4 48 5 97 4
76 -3 91 -6 94 -20z m249 5 c3 -10 27 -70 53 -133 67 -162 66 -160 36 -160
-19 0 -26 6 -31 30 l-7 30 -78 0 c-77 0 -78 0 -90 -30 -9 -21 -19 -30 -36 -30
-25 0 -30 9 -15 25 5 6 25 51 44 100 66 168 75 185 97 185 11 0 23 -8 27 -17z
m306 -76 l59 -88 60 90 c41 62 66 91 79 91 18 0 19 -9 19 -155 0 -147 -1 -155
-20 -155 -18 0 -20 8 -22 110 l-3 110 -48 -70 c-29 -43 -55 -70 -66 -70 -11 0
-36 26 -65 70 -25 39 -48 70 -50 70 -2 0 -4 -39 -4 -87 -1 -137 0 -133 -22
-133 -19 0 -20 7 -20 156 0 154 0 155 22 152 14 -2 41 -32 81 -91z"/>
<path d="M1157 3053 c-4 -3 -7 -31 -7 -61 l0 -54 61 4 c38 3 64 10 70 19 16
26 10 67 -13 83 -22 16 -99 22 -111 9z"/>
<path d="M1841 2998 c-5 -13 -16 -40 -24 -60 -9 -21 -13 -38 -9 -39 33 -4 95
-3 98 3 6 9 -39 118 -49 118 -4 0 -11 -10 -16 -22z"/>
<path d="M3115 3086 c-76 -34 -112 -106 -100 -198 22 -160 238 -198 333 -58
12 18 22 37 22 41 0 5 -21 9 -46 9 -35 0 -54 -6 -77 -26 -59 -50 -137 -12
-137 66 0 58 27 85 85 85 38 0 51 -4 63 -22 11 -18 24 -23 59 -23 44 0 45 1
38 28 -20 83 -152 137 -240 98z"/>
<path d="M3556 3090 c-38 -5 -40 -7 -69 -80 -16 -41 -44 -113 -63 -160 -19
-47 -34 -89 -34 -93 0 -4 22 -7 48 -7 42 0 50 3 60 25 10 23 17 25 70 25 53 0
60 -2 70 -25 10 -22 18 -25 61 -25 l49 0 -34 93 c-19 50 -39 101 -44 112 -5
11 -19 45 -30 77 -11 31 -26 58 -33 60 -7 2 -30 1 -51 -2z m30 -152 c6 -18 14
-41 19 -50 6 -16 1 -18 -34 -18 -23 0 -41 1 -41 3 0 13 33 97 38 97 4 0 12
-15 18 -32z"/>
<path d="M3817 3092 c-15 -3 -17 -23 -17 -173 l0 -169 44 0 45 0 3 48 c3 39 6
47 23 47 14 0 27 -15 44 -47 l23 -48 54 0 54 0 -25 50 c-30 60 -30 65 -5 92
15 17 20 35 20 77 -1 66 -18 92 -74 111 -35 11 -153 19 -189 12z m151 -88 c44
-31 17 -84 -44 -84 -33 0 -34 1 -34 43 0 24 3 47 7 50 11 12 48 7 71 -9z"/>
<path d="M4250 3090 l-115 -5 0 -40 0 -40 53 -3 52 -3 0 -125 0 -124 50 0 50
0 0 125 0 125 51 0 50 0 -3 47 c-4 54 6 52 -188 43z"/>
<path d="M814 2137 c-2 -7 -3 -69 -2 -138 l3 -124 67 -3 c74 -3 119 13 139 49
14 27 3 70 -22 90 -20 15 -20 16 -3 46 17 28 17 32 2 55 -11 17 -30 27 -55 31
-64 11 -123 8 -129 -6z m134 -39 c19 -19 14 -44 -12 -56 -44 -20 -76 -4 -76
39 0 27 3 29 38 29 21 0 43 -5 50 -12z m21 -120 c15 -38 -9 -63 -60 -63 -41 0
-44 2 -47 28 -6 48 3 57 53 57 38 0 47 -4 54 -22z"/>
<path d="M1235 2120 c-16 -30 -85 -228 -85 -242 0 -4 10 -8 23 -8 17 0 26 9
36 35 12 34 14 35 66 35 52 0 54 -1 65 -35 9 -27 17 -35 36 -35 13 0 24 3 24
6 0 15 -83 250 -93 262 -18 23 -55 14 -72 -18z m74 -122 c1 -14 -7 -18 -35
-18 -36 0 -36 0 -29 36 3 20 12 45 18 55 11 18 13 16 29 -18 9 -21 17 -46 17
-55z"/>
<path d="M1547 2143 c-4 -3 -7 -66 -7 -140 l0 -133 25 0 c25 0 25 0 25 97 0
113 0 113 75 -10 42 -67 55 -82 75 -82 l25 0 0 135 c0 128 -1 135 -20 135 -18
0 -20 -8 -23 -82 -2 -46 -6 -83 -10 -83 -4 0 -31 39 -60 85 -41 66 -59 85 -76
85 -12 0 -26 -3 -29 -7z"/>
<path d="M2005 2141 c-82 -36 -99 -192 -28 -248 38 -31 96 -31 118 0 l15 22 6
-22 c4 -16 14 -23 30 -23 23 0 24 3 24 75 l0 75 -60 0 c-53 0 -60 -2 -60 -20
0 -16 7 -20 30 -20 25 0 30 -4 30 -25 0 -17 -8 -29 -24 -36 -38 -18 -75 -3
-92 36 -40 97 18 180 98 140 30 -15 68 -12 68 4 0 34 -107 63 -155 42z"/>
<path d="M2327 2143 c-4 -3 -7 -66 -7 -140 l0 -133 85 0 c78 0 85 2 85 20 0
16 -8 19 -57 22 l-58 3 -3 118 c-2 105 -4 117 -21 117 -10 0 -21 -3 -24 -7z"/>
<path d="M2702 2128 c-14 -29 -82 -235 -82 -249 0 -6 10 -9 23 -7 15 2 25 13
32 36 9 31 11 32 66 32 55 0 56 -1 65 -32 8 -26 16 -34 37 -36 15 -2 27 -2 27
0 0 9 -87 255 -93 266 -14 21 -62 15 -75 -10z m58 -79 c6 -22 14 -47 17 -55 4
-11 -4 -14 -32 -14 l-37 0 7 37 c7 37 22 73 30 73 2 0 9 -18 15 -41z"/>
<path d="M3018 2144 c-5 -4 -8 -68 -8 -142 l0 -135 68 5 c84 6 129 29 148 73
27 66 9 148 -39 180 -27 17 -157 32 -169 19z m144 -56 c21 -10 33 -66 24 -111
-7 -38 -35 -58 -87 -60 l-34 -2 -3 89 c-2 63 1 92 10 97 13 8 63 1 90 -13z"/>
<path d="M3407 2143 c-4 -3 -7 -66 -7 -140 l0 -133 90 0 c83 0 90 1 90 20 0
18 -7 20 -65 20 l-65 0 0 40 c0 25 5 40 13 41 6 1 30 2 52 3 32 1 40 5 40 20
0 17 -8 20 -50 20 l-50 1 0 35 0 35 63 3 c54 3 62 6 62 22 0 18 -7 20 -83 20
-46 0 -87 -3 -90 -7z"/>
<path d="M3760 2142 c-31 -10 -51 -48 -43 -82 8 -36 17 -42 81 -65 43 -16 58
-26 60 -43 2 -16 -4 -25 -23 -34 -23 -10 -32 -9 -65 9 -28 17 -40 19 -49 10
-17 -17 -14 -26 22 -47 38 -24 87 -26 126 -5 32 16 41 33 41 74 0 36 -23 56
-87 77 -57 18 -74 41 -46 62 17 13 47 11 85 -3 20 -8 37 20 21 36 -12 12 -93
20 -123 11z"/>
<path d="M4067 2144 c-4 -4 -7 -68 -7 -141 0 -134 0 -134 23 -131 20 3 22 9
25 66 l3 62 64 0 65 0 0 -66 c0 -62 1 -65 23 -62 22 3 22 6 22 138 0 128 -1
135 -20 135 -17 0 -20 -8 -23 -47 -3 -52 -1 -50 -82 -50 -47 0 -49 1 -52 49
-2 34 -8 49 -18 51 -9 1 -19 0 -23 -4z"/>
</g>
</svg>
